<svg xmlns="http://www.w3.org/2000/svg" viewBox="0 0 52.43 43.7">
    <title>Sprout Lists</title>
    <g>
        <g>
            <path
                d="M50.43,7.31H2a2,2,0,0,1-2-2V2A2,2,0,0,1,2,0H50.43a2,2,0,0,1,2,2V5.31A2,2,0,0,1,50.43,7.31Zm0,12.13H2a2,2,0,0,1-2-2V14.13a2,2,0,0,1,2-2H50.43a2,2,0,0,1,2,2v3.31A2,2,0,0,1,50.43,19.44Zm0,12.13H2a2,2,0,0,1-2-2V26.26a2,2,0,0,1,2-2H50.43a2,2,0,0,1,2,2v3.31A2,2,0,0,1,50.43,31.57Zm0,12.13H2a2,2,0,0,1-2-2V38.38a2,2,0,0,1,2-2H50.43a2,2,0,0,1,2,2V41.7A2,2,0,0,1,50.43,43.7Z"/>
        </g>
    </g>
</svg>