<svg xmlns="http://www.w3.org/2000/svg" viewBox="0 0 100 100">
    <title>Sprout Lists</title>
    <g>
        <g>
            <path
                d="M100,50A50,50,0,1,1,50,0,50,50,0,0,1,100,50ZM76.22,33.46V30.15a2,2,0,0,0-2-2H25.78a2,2,0,0,0-2,2v3.31a2,2,0,0,0,2,2H74.22A2,2,0,0,0,76.22,33.46Zm0,12.13V42.28a2,2,0,0,0-2-2H25.78a2,2,0,0,0-2,2v3.31a2,2,0,0,0,2,2H74.22A2,2,0,0,0,76.22,45.59Zm0,12.13V54.41a2,2,0,0,0-2-2H25.78a2,2,0,0,0-2,2v3.31a2,2,0,0,0,2,2H74.22A2,2,0,0,0,76.22,57.72Zm0,12.13V66.54a2,2,0,0,0-2-2H25.78a2,2,0,0,0-2,2v3.31a2,2,0,0,0,2,2H74.22A2,2,0,0,0,76.22,69.85Z"
                style="fill:#46b649"/>
        </g>
    </g>
</svg>